<svg width="16" height="18" viewBox="0 0 16 18" fill="none" xmlns="http://www.w3.org/2000/svg">
<circle cx="8" cy="9.55981" r="8" fill="#FDBF11"/>
<path d="M8.765 7.37781V14.5598H7.036V7.37781H8.765ZM9.024 5.28481C9.024 5.43415 8.99367 5.57415 8.933 5.70481C8.87233 5.83548 8.79067 5.94981 8.688 6.04781C8.59 6.14581 8.47333 6.22515 8.338 6.28581C8.20267 6.34181 8.058 6.36981 7.904 6.36981C7.75467 6.36981 7.61233 6.34181 7.477 6.28581C7.34633 6.22515 7.232 6.14581 7.134 6.04781C7.036 5.94981 6.95667 5.83548 6.896 5.70481C6.84 5.57415 6.812 5.43415 6.812 5.28481C6.812 5.13081 6.84 4.98615 6.896 4.85081C6.95667 4.71548 7.036 4.59881 7.134 4.50081C7.232 4.40281 7.34633 4.32581 7.477 4.26981C7.61233 4.20915 7.75467 4.17881 7.904 4.17881C8.058 4.17881 8.20267 4.20915 8.338 4.26981C8.47333 4.32581 8.59 4.40281 8.688 4.50081C8.79067 4.59881 8.87233 4.71548 8.933 4.85081C8.99367 4.98615 9.024 5.13081 9.024 5.28481Z" fill="black"/>
</svg>
