<svg width="108" height="10" viewBox="0 0 108 10" fill="none" xmlns="http://www.w3.org/2000/svg">
<path d="M0.504727 0.328999V5.308C0.504727 6.231 0.595727 7.336 1.34973 8.155C1.88273 8.727 2.85773 9.195 4.22273 9.195C5.44473 9.195 6.35473 8.857 7.08273 8.116C8.01873 7.167 8.05773 6.218 8.05773 5.308V0.328999H5.80873V5.269C5.80873 5.75 5.82173 6.387 5.30173 6.842C5.05473 7.063 4.65173 7.219 4.26173 7.219C3.87173 7.219 3.45573 7.05 3.19573 6.803C2.76673 6.387 2.75373 5.828 2.75373 5.464V0.328999H0.504727ZM9.87387 0.328999V9H12.1229V5.672L14.2809 9H17.0759L14.3589 5.451C14.7619 5.373 15.2169 5.178 15.5549 4.853C15.9839 4.437 16.2439 3.787 16.2439 3.046C16.2439 2.357 15.9969 1.603 15.5029 1.096C14.8659 0.432999 14.0339 0.328999 13.3839 0.328999H9.87387ZM12.1229 2.071H12.5519C13.0459 2.071 13.4229 2.201 13.6309 2.409C13.8259 2.591 13.9299 2.877 13.9299 3.137C13.9299 3.41 13.8129 3.696 13.6439 3.865C13.3709 4.125 12.8899 4.216 12.5519 4.216H12.1229V2.071ZM21.6383 9C22.7043 9 23.5233 8.662 23.9913 8.181C24.3163 7.856 24.6283 7.297 24.6283 6.478C24.6283 5.789 24.3943 5.23 24.0433 4.892C23.7703 4.632 23.3153 4.424 22.8603 4.372C23.1853 4.229 23.3803 4.034 23.5623 3.696C23.7443 3.332 23.8093 3.007 23.8093 2.63C23.8093 1.863 23.5753 1.33 23.2763 1.005C22.7433 0.42 22.0023 0.328999 21.3783 0.328999H18.0243V9H21.6383ZM20.2733 2.058H20.6893C21.1313 2.058 21.4043 2.175 21.5473 2.318C21.6773 2.461 21.7553 2.682 21.7553 2.903C21.7553 3.098 21.6903 3.332 21.5473 3.475C21.3133 3.722 20.9233 3.748 20.6893 3.748H20.2733V2.058ZM20.2733 5.425H20.7413C21.3003 5.425 21.8593 5.438 22.1323 5.711C22.2623 5.841 22.3533 6.062 22.3533 6.335C22.3533 6.582 22.2753 6.777 22.1713 6.894C21.9243 7.18 21.4043 7.245 20.7803 7.245H20.2733V5.425ZM31.8844 9H34.2894L31.0264 0.328999H28.5694L25.2414 9H27.6204L28.2054 7.544H31.3514L31.8844 9ZM28.8294 5.828L29.7784 3.02L30.7534 5.828H28.8294ZM37.5389 9V3.696L41.6859 9H43.9349V0.328999H41.6859V5.633L37.5389 0.328999H35.2899V9H37.5389Z" fill="#1696D2"/>
<path d="M48.785 0.328999V9H51.034V0.328999H48.785ZM55.1092 9V3.696L59.2562 9H61.5052V0.328999H59.2562V5.633L55.1092 0.328999H52.8602V9H55.1092ZM62.9311 8.22C63.5551 8.649 64.1011 8.857 64.2441 8.909C64.8811 9.143 65.4011 9.195 65.9471 9.195C66.8701 9.195 67.7671 9.052 68.5081 8.311C69.1321 7.687 69.3271 6.92 69.3271 6.127C69.3271 5.529 69.2101 5.048 68.7681 4.58C68.3131 4.086 67.7411 3.891 67.1951 3.722L66.5061 3.514C65.9731 3.358 65.8171 3.202 65.7521 3.124C65.6611 3.007 65.6351 2.89 65.6351 2.734C65.6351 2.539 65.7261 2.396 65.8561 2.266C66.0771 2.058 66.3761 2.006 66.5971 2.006C66.8961 2.006 67.4031 2.058 68.0791 2.591L68.9761 0.836C68.1571 0.407 67.1561 0.133999 66.2981 0.133999C65.2451 0.133999 64.5171 0.510999 64.0751 0.953C63.6981 1.33 63.2821 1.98 63.2821 3.046C63.2821 3.488 63.3341 4.099 63.7761 4.58C64.1271 4.97 64.6601 5.165 65.0241 5.282L65.6091 5.464C66.1681 5.633 66.5061 5.724 66.7271 5.919C66.9091 6.075 66.9741 6.27 66.9741 6.439C66.9741 6.66 66.8831 6.855 66.7531 6.985C66.6101 7.141 66.3371 7.284 65.8821 7.284C65.1021 7.284 64.3741 6.855 63.8931 6.4L62.9311 8.22ZM75.8699 2.24V0.328999H69.9289V2.24H71.7749V9H74.0239V2.24H75.8699ZM76.867 0.328999V9H79.116V0.328999H76.867ZM86.0642 2.24V0.328999H80.1232V2.24H81.9692V9H84.2182V2.24H86.0642ZM87.0614 0.328999V5.308C87.0614 6.231 87.1524 7.336 87.9064 8.155C88.4394 8.727 89.4144 9.195 90.7794 9.195C92.0014 9.195 92.9114 8.857 93.6394 8.116C94.5754 7.167 94.6144 6.218 94.6144 5.308V0.328999H92.3654V5.269C92.3654 5.75 92.3784 6.387 91.8584 6.842C91.6114 7.063 91.2084 7.219 90.8184 7.219C90.4284 7.219 90.0124 7.05 89.7524 6.803C89.3234 6.387 89.3104 5.828 89.3104 5.464V0.328999H87.0614ZM101.553 2.24V0.328999H95.6115V2.24H97.4575V9H99.7065V2.24H101.553ZM107.477 0.328999H102.55V9H107.477V7.089H104.799V5.594H107.334V3.683H104.799V2.24H107.477V0.328999Z" fill="black"/>
</svg>
