<svg width="14" height="16" viewBox="0 0 14 16" fill="none" xmlns="http://www.w3.org/2000/svg">
<path d="M13.5644 14.141C13.6889 14.141 13.7822 14.1867 13.8756 14.2629C13.9689 14.339 14 14.4457 14 14.5676V15.5733C14 15.6952 13.9533 15.7867 13.8756 15.8781C13.7978 15.9695 13.6889 16 13.5644 16H0.435556C0.311111 16 0.217778 15.9543 0.124444 15.8781C0.0311111 15.8019 0 15.6952 0 15.5733V14.5676C0 14.4457 0.0466667 14.3543 0.124444 14.2629C0.202222 14.1714 0.311111 14.141 0.435556 14.141H13.5644ZM12.7244 7.14667C12.8022 7.07048 12.8333 6.97905 12.8333 6.85714C12.8333 6.73524 12.7867 6.62857 12.6933 6.53714L11.9933 5.82095C11.9 5.74476 11.7911 5.71429 11.6667 5.71429C11.5422 5.71429 11.4489 5.76 11.3711 5.85143L7.94889 9.31048V0.426667C7.94889 0.304762 7.90222 0.213333 7.82444 0.121905C7.74667 0.0304762 7.63778 0 7.51333 0H6.48667C6.36222 0 6.26889 0.0457143 6.17556 0.121905C6.08222 0.198095 6.05111 0.304762 6.05111 0.426667V9.32571L2.62889 5.86667C2.55111 5.76 2.45778 5.71429 2.33333 5.71429C2.20889 5.71429 2.1 5.74476 2.00667 5.82095L1.27556 6.53714C1.19778 6.62857 1.16667 6.73524 1.16667 6.85714C1.16667 6.97905 1.21333 7.07048 1.30667 7.14667L6.67333 12.4343C6.76667 12.5257 6.87556 12.5714 7 12.5714C7.12444 12.5714 7.23333 12.5257 7.32667 12.4343L12.7244 7.14667Z" fill="white"/>
</svg>
