<svg width="16" height="17" viewBox="0 0 16 17" fill="none" xmlns="http://www.w3.org/2000/svg">
<circle cx="8" cy="9" r="8" fill="black"/>
<path d="M8.765 6.818V14H7.036V6.818H8.765ZM9.024 4.725C9.024 4.87433 8.99367 5.01433 8.933 5.145C8.87233 5.27567 8.79067 5.39 8.688 5.488C8.59 5.586 8.47333 5.66533 8.338 5.726C8.20267 5.782 8.058 5.81 7.904 5.81C7.75467 5.81 7.61233 5.782 7.477 5.726C7.34633 5.66533 7.232 5.586 7.134 5.488C7.036 5.39 6.95667 5.27567 6.896 5.145C6.84 5.01433 6.812 4.87433 6.812 4.725C6.812 4.571 6.84 4.42633 6.896 4.291C6.95667 4.15567 7.036 4.039 7.134 3.941C7.232 3.843 7.34633 3.766 7.477 3.71C7.61233 3.64933 7.75467 3.619 7.904 3.619C8.058 3.619 8.20267 3.64933 8.338 3.71C8.47333 3.766 8.59 3.843 8.688 3.941C8.79067 4.039 8.87233 4.15567 8.933 4.291C8.99367 4.42633 9.024 4.571 9.024 4.725Z" fill="white"/>
</svg>
